<svg xmlns="http://www.w3.org/2000/svg" viewBox="-108.74054 -221.43883 382.60567 252.63937 " height="252.63937pt" width="382.60567pt"><g xmlns="http://www.w3.org/2000/svg" transform="translate(0,31.20055 ) scale(1,-1) translate(0,221.43883 )"><g xmlns="http://www.w3.org/2000/svg" fill="#000" stroke="#000"><g xmlns="http://www.w3.org/2000/svg" stroke-width="0.4"><g xmlns="http://www.w3.org/2000/svg" fill="#f8d2cd"><g xmlns="http://www.w3.org/2000/svg" fill="#f8d2cd"><path xmlns="http://www.w3.org/2000/svg" d=" M 79.31262 9.99756 L -79.31262 9.99756 C -81.52179 9.99756 -83.31262 8.20673 -83.31262 5.99756 L -83.31262 -5.99756 C -83.31262 -8.20673 -81.52179 -9.99756 -79.31262 -9.99756 L 79.31262 -9.99756 C 81.52179 -9.99756 83.31262 -8.20673 83.31262 -5.99756 L 83.31262 5.99756 C 83.31262 8.20673 81.52179 9.99756 79.31262 9.99756 Z M -83.31262 -9.99756  "/></g><g xmlns="http://www.w3.org/2000/svg" transform="translate(-79.98047,-2.49939)"><g xmlns="http://www.w3.org/2000/svg" fill="#000"><text xmlns="http://www.w3.org/2000/svg" font-size="10" text-anchor="middle" transform="scale(1,-1) translate(79.98047,0)" style="stroke:none"><tspan xmlns="http://www.w3.org/2000/svg" font-size="10" font-family="ecrm">A: xorl $0xSECRET,(%rsp)</tspan></text></g></g></g><g xmlns="http://www.w3.org/2000/svg" fill="#f8d2cd"><g xmlns="http://www.w3.org/2000/svg" fill="#f8d2cd"><path xmlns="http://www.w3.org/2000/svg" d=" M 5.99756 -30.39267 L -5.99756 -30.39267 C -8.20673 -30.39267 -9.99756 -32.1835 -9.99756 -34.39267 L -9.99756 -46.38779 C -9.99756 -48.59695 -8.20673 -50.38779 -5.99756 -50.38779 L 5.99756 -50.38779 C 8.20673 -50.38779 9.99756 -48.59695 9.99756 -46.38779 L 9.99756 -34.39267 C 9.99756 -32.1835 8.20673 -30.39267 5.99756 -30.39267 Z M -9.99756 -50.38779  "/></g><g xmlns="http://www.w3.org/2000/svg" transform="translate(-3.5408,-43.83383)"><g xmlns="http://www.w3.org/2000/svg" fill="#000"><text xmlns="http://www.w3.org/2000/svg" font-size="10" text-anchor="middle" transform="scale(1,-1) translate(3.5408,0)" style="stroke:none"><tspan xmlns="http://www.w3.org/2000/svg" font-size="10" font-family="ecrm">B</tspan></text></g></g></g><g xmlns="http://www.w3.org/2000/svg" fill="#f8d2cd"><g xmlns="http://www.w3.org/2000/svg" fill="#f8d2cd"><path xmlns="http://www.w3.org/2000/svg" d=" M -28.53624 -64.92647 L -40.53136 -64.92647 C -42.74052 -64.92647 -44.53136 -66.7173 -44.53136 -68.92647 L -44.53136 -80.92159 C -44.53136 -83.13075 -42.74052 -84.92159 -40.53136 -84.92159 L -28.53624 -84.92159 C -26.32707 -84.92159 -24.53624 -83.13075 -24.53624 -80.92159 L -24.53624 -68.92647 C -24.53624 -66.7173 -26.32707 -64.92647 -28.53624 -64.92647 Z M -44.53136 -84.92159  "/></g><g xmlns="http://www.w3.org/2000/svg" transform="translate(-38.14403,-78.36763)"><g xmlns="http://www.w3.org/2000/svg" fill="#000"><text xmlns="http://www.w3.org/2000/svg" font-size="10" text-anchor="middle" transform="scale(1,-1) translate(3.61023,0)" style="stroke:none"><tspan xmlns="http://www.w3.org/2000/svg" font-size="10" font-family="ecrm">C</tspan></text></g></g></g><g xmlns="http://www.w3.org/2000/svg" fill="#f8d2cd"><g xmlns="http://www.w3.org/2000/svg" fill="#f8d2cd"><path xmlns="http://www.w3.org/2000/svg" d=" M 40.53136 -64.92647 L 28.53624 -64.92647 C 26.32707 -64.92647 24.53624 -66.7173 24.53624 -68.92647 L 24.53624 -80.92159 C 24.53624 -83.13075 26.32707 -84.92159 28.53624 -84.92159 L 40.53136 -84.92159 C 42.74052 -84.92159 44.53136 -83.13075 44.53136 -80.92159 L 44.53136 -68.92647 C 44.53136 -66.7173 42.74052 -64.92647 40.53136 -64.92647 Z M 24.53624 -84.92159  "/></g><g xmlns="http://www.w3.org/2000/svg" transform="translate(30.71529,-78.36763)"><g xmlns="http://www.w3.org/2000/svg" fill="#000"><text xmlns="http://www.w3.org/2000/svg" font-size="10" text-anchor="middle" transform="scale(1,-1) translate(3.81851,0)" style="stroke:none"><tspan xmlns="http://www.w3.org/2000/svg" font-size="10" font-family="ecrm">D</tspan></text></g></g></g><g xmlns="http://www.w3.org/2000/svg" fill="#f8d2cd"><g xmlns="http://www.w3.org/2000/svg" fill="#f8d2cd"><path xmlns="http://www.w3.org/2000/svg" d=" M 40.53136 -105.3167 L 28.53624 -105.3167 C 26.32707 -105.3167 24.53624 -107.10753 24.53624 -109.3167 L 24.53624 -121.31181 C 24.53624 -123.52098 26.32707 -125.31181 28.53624 -125.31181 L 40.53136 -125.31181 C 42.74052 -125.31181 44.53136 -123.52098 44.53136 -121.31181 L 44.53136 -109.3167 C 44.53136 -107.10753 42.74052 -105.3167 40.53136 -105.3167 Z M 24.53624 -125.31181  "/></g><g xmlns="http://www.w3.org/2000/svg" transform="translate(31.13185,-118.75786)"><g xmlns="http://www.w3.org/2000/svg" fill="#000"><text xmlns="http://www.w3.org/2000/svg" font-size="10" text-anchor="middle" transform="scale(1,-1) translate(3.40195,0)" style="stroke:none"><tspan xmlns="http://www.w3.org/2000/svg" font-size="10" font-family="ecrm">E</tspan></text></g></g></g><g xmlns="http://www.w3.org/2000/svg" fill="#f8d2cd"><g xmlns="http://www.w3.org/2000/svg" fill="#f8d2cd"><path xmlns="http://www.w3.org/2000/svg" d=" M 80.92159 -64.92647 L 68.92647 -64.92647 C 66.7173 -64.92647 64.92647 -66.7173 64.92647 -68.92647 L 64.92647 -80.92159 C 64.92647 -83.13075 66.7173 -84.92159 68.92647 -84.92159 L 80.92159 -84.92159 C 83.13075 -84.92159 84.92159 -83.13075 84.92159 -80.92159 L 84.92159 -68.92647 C 84.92159 -66.7173 83.13075 -64.92647 80.92159 -64.92647 Z M 64.92647 -84.92159  "/></g><g xmlns="http://www.w3.org/2000/svg" transform="translate(71.00137,-78.36763)"><g xmlns="http://www.w3.org/2000/svg" fill="#000"><text xmlns="http://www.w3.org/2000/svg" font-size="10" text-anchor="middle" transform="scale(1,-1) translate(3.92265,0)" style="stroke:none"><tspan xmlns="http://www.w3.org/2000/svg" font-size="10" font-family="ecrm">G</tspan></text></g></g></g><g xmlns="http://www.w3.org/2000/svg" fill="#f8d2cd"><g xmlns="http://www.w3.org/2000/svg" fill="#f8d2cd"><path xmlns="http://www.w3.org/2000/svg" d=" M -28.53624 -105.3167 L -40.53136 -105.3167 C -42.74052 -105.3167 -44.53136 -107.10753 -44.53136 -109.3167 L -44.53136 -121.31181 C -44.53136 -123.52098 -42.74052 -125.31181 -40.53136 -125.31181 L -28.53624 -125.31181 C -26.32707 -125.31181 -24.53624 -123.52098 -24.53624 -121.31181 L -24.53624 -109.3167 C -24.53624 -107.10753 -26.32707 -105.3167 -28.53624 -105.3167 Z M -44.53136 -125.31181  "/></g><g xmlns="http://www.w3.org/2000/svg" transform="translate(-37.79689,-118.75786)"><g xmlns="http://www.w3.org/2000/svg" fill="#000"><text xmlns="http://www.w3.org/2000/svg" font-size="10" text-anchor="middle" transform="scale(1,-1) translate(3.26309,0)" style="stroke:none"><tspan xmlns="http://www.w3.org/2000/svg" font-size="10" font-family="ecrm">F</tspan></text></g></g></g><g xmlns="http://www.w3.org/2000/svg" fill="#f8d2cd"><g xmlns="http://www.w3.org/2000/svg" fill="#f8d2cd"><path xmlns="http://www.w3.org/2000/svg" d=" M 5.99756 -139.8505 L -5.99756 -139.8505 C -8.20673 -139.8505 -9.99756 -141.64133 -9.99756 -143.8505 L -9.99756 -155.84561 C -9.99756 -158.05478 -8.20673 -159.84561 -5.99756 -159.84561 L 5.99756 -159.84561 C 8.20673 -159.84561 9.99756 -158.05478 9.99756 -155.84561 L 9.99756 -143.8505 C 9.99756 -141.64133 8.20673 -139.8505 5.99756 -139.8505 Z M -9.99756 -159.84561  "/></g><g xmlns="http://www.w3.org/2000/svg" transform="translate(-3.74908,-153.29166)"><g xmlns="http://www.w3.org/2000/svg" fill="#000"><text xmlns="http://www.w3.org/2000/svg" font-size="10" text-anchor="middle" transform="scale(1,-1) translate(3.74908,0)" style="stroke:none"><tspan xmlns="http://www.w3.org/2000/svg" font-size="10" font-family="ecrm">H</tspan></text></g></g></g><g xmlns="http://www.w3.org/2000/svg" fill="#f8d2cd"><g xmlns="http://www.w3.org/2000/svg" fill="#f8d2cd"><path xmlns="http://www.w3.org/2000/svg" d=" M 79.31262 -180.24072 L -79.31262 -180.24072 C -81.52179 -180.24072 -83.31262 -182.03156 -83.31262 -184.24072 L -83.31262 -196.23584 C -83.31262 -198.445 -81.52179 -200.23584 -79.31262 -200.23584 L 79.31262 -200.23584 C 81.52179 -200.23584 83.31262 -198.445 83.31262 -196.23584 L 83.31262 -184.24072 C 83.31262 -182.03156 81.52179 -180.24072 79.31262 -180.24072 Z M -83.31262 -200.23584  "/></g><g xmlns="http://www.w3.org/2000/svg" transform="translate(-79.98047,-192.73767)"><g xmlns="http://www.w3.org/2000/svg" fill="#000"><text xmlns="http://www.w3.org/2000/svg" font-size="10" text-anchor="middle" transform="scale(1,-1) translate(79.98047,0)" style="stroke:none"><tspan xmlns="http://www.w3.org/2000/svg" font-size="10" font-family="ecrm">I: xorl $0xSECRET,(%rsp); ret</tspan></text></g></g></g><g xmlns="http://www.w3.org/2000/svg" transform="translate(-101.18346,27.8684)"><g xmlns="http://www.w3.org/2000/svg" fill="#000"><text xmlns="http://www.w3.org/2000/svg" font-size="10" text-anchor="middle" transform="scale(1,-1) translate(0.0,0)" style="stroke:none"><NIL/></text></g></g><g xmlns="http://www.w3.org/2000/svg" transform="translate(-101.18346,-218.10667)"><g xmlns="http://www.w3.org/2000/svg" fill="#000"><text xmlns="http://www.w3.org/2000/svg" font-size="10" text-anchor="middle" transform="scale(1,-1) translate(0.0,0)" style="stroke:none"><NIL/></text></g></g><g xmlns="http://www.w3.org/2000/svg" stroke-width="1.2"><path xmlns="http://www.w3.org/2000/svg" fill="none" d=" M 0.0 -10.19756 L 0.0 -28.99269  "/><g xmlns="http://www.w3.org/2000/svg" transform="matrix(0.0,-1.0,1.0,0.0,0.0,-29.59268)"><g xmlns="http://www.w3.org/2000/svg" stroke-dashoffset="0.0" stroke-dasharray="none"><g xmlns="http://www.w3.org/2000/svg" stroke-linecap="round"><g xmlns="http://www.w3.org/2000/svg" stroke-linejoin="round"><path xmlns="http://www.w3.org/2000/svg" fill="none" d=" M -3.04 3.84514 C -2.4846 1.53802 -1.24696 0.4486 0.0 0.0 C -1.24696 -0.4486 -2.4846 -1.53802 -3.04 -3.84514  "/></g></g></g></g></g><path xmlns="http://www.w3.org/2000/svg" fill="none" d=" M -10.19756 -43.12213 C -21.75261 -46.21832 -28.7057 -53.17142 -31.6984 -64.34012  "/><g xmlns="http://www.w3.org/2000/svg" transform="matrix(-0.25879,-0.96593,0.96593,-0.25879,-31.75014,-64.53328)"><g xmlns="http://www.w3.org/2000/svg" stroke-dashoffset="0.0" stroke-dasharray="none"><g xmlns="http://www.w3.org/2000/svg" stroke-linecap="round"><g xmlns="http://www.w3.org/2000/svg" stroke-linejoin="round"><path xmlns="http://www.w3.org/2000/svg" fill="none" d=" M -2.07999 2.39998 C -1.69998 0.95998 -0.85318 0.28 0.0 0.0 C -0.85318 -0.28 -1.69998 -0.95998 -2.07999 -2.39998  "/></g></g></g></g><path xmlns="http://www.w3.org/2000/svg" fill="none" d=" M 10.19756 -43.12213 C 21.75261 -46.21832 28.7057 -53.17142 31.6984 -64.34012  "/><g xmlns="http://www.w3.org/2000/svg" transform="matrix(0.25879,-0.96593,0.96593,0.25879,31.75014,-64.53328)"><g xmlns="http://www.w3.org/2000/svg" stroke-dashoffset="0.0" stroke-dasharray="none"><g xmlns="http://www.w3.org/2000/svg" stroke-linecap="round"><g xmlns="http://www.w3.org/2000/svg" stroke-linejoin="round"><path xmlns="http://www.w3.org/2000/svg" fill="none" d=" M -2.07999 2.39998 C -1.69998 0.95998 -0.85318 0.28 0.0 0.0 C -0.85318 -0.28 -1.69998 -0.95998 -2.07999 -2.39998  "/></g></g></g></g><path xmlns="http://www.w3.org/2000/svg" fill="none" d=" M 44.73135 -69.03838 C 51.48419 -65.13963 57.97363 -65.13963 64.38008 -68.8384  "/><g xmlns="http://www.w3.org/2000/svg" transform="matrix(0.86601,-0.49998,0.49998,0.86601,64.55327,-68.93839)"><g xmlns="http://www.w3.org/2000/svg" stroke-dashoffset="0.0" stroke-dasharray="none"><g xmlns="http://www.w3.org/2000/svg" stroke-linecap="round"><g xmlns="http://www.w3.org/2000/svg" stroke-linejoin="round"><path xmlns="http://www.w3.org/2000/svg" fill="none" d=" M -2.07999 2.39998 C -1.69998 0.95998 -0.85318 0.28 0.0 0.0 C -0.85318 -0.28 -1.69998 -0.95998 -2.07999 -2.39998  "/></g></g></g></g><path xmlns="http://www.w3.org/2000/svg" fill="none" d=" M 64.72647 -80.80968 C 57.97363 -84.70842 51.48419 -84.70842 45.07774 -81.00966  "/><g xmlns="http://www.w3.org/2000/svg" transform="matrix(-0.86601,0.49998,-0.49998,-0.86601,44.90456,-80.90967)"><g xmlns="http://www.w3.org/2000/svg" stroke-dashoffset="0.0" stroke-dasharray="none"><g xmlns="http://www.w3.org/2000/svg" stroke-linecap="round"><g xmlns="http://www.w3.org/2000/svg" stroke-linejoin="round"><path xmlns="http://www.w3.org/2000/svg" fill="none" d=" M -2.07999 2.39998 C -1.69998 0.95998 -0.85318 0.28 0.0 0.0 C -0.85318 -0.28 -1.69998 -0.95998 -2.07999 -2.39998  "/></g></g></g></g><path xmlns="http://www.w3.org/2000/svg" fill="none" d=" M 34.5338 -85.12158 L 34.5338 -104.7167  "/><g xmlns="http://www.w3.org/2000/svg" transform="matrix(0.0,-1.0,1.0,0.0,34.5338,-104.9167)"><g xmlns="http://www.w3.org/2000/svg" stroke-dashoffset="0.0" stroke-dasharray="none"><g xmlns="http://www.w3.org/2000/svg" stroke-linecap="round"><g xmlns="http://www.w3.org/2000/svg" stroke-linejoin="round"><path xmlns="http://www.w3.org/2000/svg" fill="none" d=" M -2.07999 2.39998 C -1.69998 0.95998 -0.85318 0.28 0.0 0.0 C -0.85318 -0.28 -1.69998 -0.95998 -2.07999 -2.39998  "/></g></g></g></g><path xmlns="http://www.w3.org/2000/svg" fill="none" d=" M -34.5338 -85.12158 L -34.5338 -104.7167  "/><g xmlns="http://www.w3.org/2000/svg" transform="matrix(0.0,-1.0,1.0,0.0,-34.5338,-104.9167)"><g xmlns="http://www.w3.org/2000/svg" stroke-dashoffset="0.0" stroke-dasharray="none"><g xmlns="http://www.w3.org/2000/svg" stroke-linecap="round"><g xmlns="http://www.w3.org/2000/svg" stroke-linejoin="round"><path xmlns="http://www.w3.org/2000/svg" fill="none" d=" M -2.07999 2.39998 C -1.69998 0.95998 -0.85318 0.28 0.0 0.0 C -0.85318 -0.28 -1.69998 -0.95998 -2.07999 -2.39998  "/></g></g></g></g><path xmlns="http://www.w3.org/2000/svg" fill="none" d=" M 31.8019 -125.51181 C 28.7057 -137.06686 21.75261 -144.01996 10.58391 -147.01265  "/><g xmlns="http://www.w3.org/2000/svg" transform="matrix(-0.96593,-0.25879,0.25879,-0.96593,10.39075,-147.06439)"><g xmlns="http://www.w3.org/2000/svg" stroke-dashoffset="0.0" stroke-dasharray="none"><g xmlns="http://www.w3.org/2000/svg" stroke-linecap="round"><g xmlns="http://www.w3.org/2000/svg" stroke-linejoin="round"><path xmlns="http://www.w3.org/2000/svg" fill="none" d=" M -2.07999 2.39998 C -1.69998 0.95998 -0.85318 0.28 0.0 0.0 C -0.85318 -0.28 -1.69998 -0.95998 -2.07999 -2.39998  "/></g></g></g></g><g xmlns="http://www.w3.org/2000/svg" stroke-width="1.2"><path xmlns="http://www.w3.org/2000/svg" fill="none" d=" M -31.8019 -125.51181 C -28.7057 -137.06686 -21.75261 -144.01996 -11.35664 -146.80562  "/><g xmlns="http://www.w3.org/2000/svg" transform="matrix(0.96593,-0.25879,0.25879,0.96593,-10.77711,-146.96089)"><g xmlns="http://www.w3.org/2000/svg" stroke-dashoffset="0.0" stroke-dasharray="none"><g xmlns="http://www.w3.org/2000/svg" stroke-linecap="round"><g xmlns="http://www.w3.org/2000/svg" stroke-linejoin="round"><path xmlns="http://www.w3.org/2000/svg" fill="none" d=" M -3.04 3.84514 C -2.4846 1.53802 -1.24696 0.4486 0.0 0.0 C -1.24696 -0.4486 -2.4846 -1.53802 -3.04 -3.84514  "/></g></g></g></g></g><g xmlns="http://www.w3.org/2000/svg" stroke-width="1.2"><path xmlns="http://www.w3.org/2000/svg" fill="none" d=" M 0.0 -160.04561 L 0.0 -178.84074  "/><g xmlns="http://www.w3.org/2000/svg" transform="matrix(0.0,-1.0,1.0,0.0,0.0,-179.44073)"><g xmlns="http://www.w3.org/2000/svg" stroke-dashoffset="0.0" stroke-dasharray="none"><g xmlns="http://www.w3.org/2000/svg" stroke-linecap="round"><g xmlns="http://www.w3.org/2000/svg" stroke-linejoin="round"><path xmlns="http://www.w3.org/2000/svg" fill="none" d=" M -3.04 3.84514 C -2.4846 1.53802 -1.24696 0.4486 0.0 0.0 C -1.24696 -0.4486 -2.4846 -1.53802 -3.04 -3.84514  "/></g></g></g></g></g><g xmlns="http://www.w3.org/2000/svg" stroke-width="1.2"><g xmlns="http://www.w3.org/2000/svg" stroke-dashoffset="0.0" stroke-dasharray="3.0,3.0"><path xmlns="http://www.w3.org/2000/svg" fill="none" d=" M -104.7156 27.8684 C -102.98447 14.28748 -96.1396 5.29128 -84.61931 0.46371  "/><g xmlns="http://www.w3.org/2000/svg" transform="matrix(0.92226,-0.38644,0.38644,0.92226,-84.06596,0.23186)"><g xmlns="http://www.w3.org/2000/svg" stroke-dashoffset="0.0" stroke-dasharray="none"><g xmlns="http://www.w3.org/2000/svg" stroke-linecap="round"><g xmlns="http://www.w3.org/2000/svg" stroke-linejoin="round"><path xmlns="http://www.w3.org/2000/svg" fill="none" d=" M -3.04 3.84514 C -2.4846 1.53802 -1.24696 0.4486 0.0 0.0 C -1.24696 -0.4486 -2.4846 -1.53802 -3.04 -3.84514  "/></g></g></g></g></g></g><g xmlns="http://www.w3.org/2000/svg" stroke-width="1.2"><g xmlns="http://www.w3.org/2000/svg" stroke-dashoffset="0.0" stroke-dasharray="3.0,3.0"><path xmlns="http://www.w3.org/2000/svg" fill="none" d=" M -83.51262 -190.23828 C -96.1396 -195.52956 -102.98447 -204.52576 -104.56392 -216.91638  "/><g xmlns="http://www.w3.org/2000/svg" transform="matrix(-0.12642,-0.99193,0.99193,-0.12642,-104.63976,-217.51152)"><g xmlns="http://www.w3.org/2000/svg" stroke-dashoffset="0.0" stroke-dasharray="none"><g xmlns="http://www.w3.org/2000/svg" stroke-linecap="round"><g xmlns="http://www.w3.org/2000/svg" stroke-linejoin="round"><path xmlns="http://www.w3.org/2000/svg" fill="none" d=" M -3.04 3.84514 C -2.4846 1.53802 -1.24696 0.4486 0.0 0.0 C -1.24696 -0.4486 -2.4846 -1.53802 -3.04 -3.84514  "/></g></g></g></g></g></g><g xmlns="http://www.w3.org/2000/svg" stroke-dashoffset="0.0" stroke-dasharray="1.2,2.0"><g xmlns="http://www.w3.org/2000/svg" stroke-width="1.2"><g xmlns="http://www.w3.org/2000/svg" stroke-dashoffset="0.0" stroke-dasharray="1.2,2.0"><g xmlns="http://www.w3.org/2000/svg" stroke-width="1.2"><path xmlns="http://www.w3.org/2000/svg" fill="none" d=" M -86.84477 -203.76799 h 175.2985 v 217.2977 h -175.2985 Z  "/></g></g><g xmlns="http://www.w3.org/2000/svg" transform="translate(-83.51262,-95.11914)"><g xmlns="http://www.w3.org/2000/svg" fill="#000"><text xmlns="http://www.w3.org/2000/svg" font-size="10" text-anchor="middle" transform="scale(1,-1) translate(84.3171,0)" style="stroke:none"><NIL/></text></g></g></g></g><g xmlns="http://www.w3.org/2000/svg" transform="translate(-20.1904,20.16124)"><g xmlns="http://www.w3.org/2000/svg" fill="#000"><text xmlns="http://www.w3.org/2000/svg" font-size="10" text-anchor="middle" transform="scale(1,-1) translate(20.99487,0)" style="stroke:none"><tspan xmlns="http://www.w3.org/2000/svg" font-size="10" font-family="ectt">Function</tspan></text></g></g><g xmlns="http://www.w3.org/2000/svg" fill="#e6e6e6"><g xmlns="http://www.w3.org/2000/svg" fill="#e6e6e6"><path xmlns="http://www.w3.org/2000/svg" d=" M 143.69797 -6.77576 h 126.63501 v 13.55151 h -126.63501 Z  "/></g><g xmlns="http://www.w3.org/2000/svg" transform="translate(147.03012,-3.4436)"><g xmlns="http://www.w3.org/2000/svg" fill="#000"><text xmlns="http://www.w3.org/2000/svg" font-size="10" text-anchor="middle" transform="scale(1,-1) translate(59.98535,0)" style="stroke:none"><tspan xmlns="http://www.w3.org/2000/svg" font-size="10" font-family="ecrm">Ret. Addr.</tspan></text></g></g></g><g xmlns="http://www.w3.org/2000/svg" fill="#e6e6e6"><g xmlns="http://www.w3.org/2000/svg" fill="#e6e6e6"><path xmlns="http://www.w3.org/2000/svg" d=" M 143.69797 -54.14456 h 126.63501 v 46.96881 h -126.63501 Z  "/></g><g xmlns="http://www.w3.org/2000/svg" transform="translate(147.03012,-50.81241)"><g xmlns="http://www.w3.org/2000/svg" fill="#000"><text xmlns="http://www.w3.org/2000/svg" font-size="10" text-anchor="middle" transform="scale(1,-1) translate(59.98535,0)" style="stroke:none"><tspan xmlns="http://www.w3.org/2000/svg" font-size="10" font-family="ecrm"> </tspan></text></g></g></g><g xmlns="http://www.w3.org/2000/svg" fill="#e6e6e6"><g xmlns="http://www.w3.org/2000/svg" fill="#e6e6e6"><path xmlns="http://www.w3.org/2000/svg" d=" M 143.69797 -89.51337 h 126.63501 v 34.96881 h -126.63501 Z  "/></g><g xmlns="http://www.w3.org/2000/svg" transform="translate(147.03012,-86.18121)"><g xmlns="http://www.w3.org/2000/svg" fill="#000"><text xmlns="http://www.w3.org/2000/svg" font-size="10" text-anchor="middle" transform="scale(1,-1) translate(59.98535,0)" style="stroke:none"><tspan xmlns="http://www.w3.org/2000/svg" font-size="10" font-family="ecrm"> </tspan></text></g></g></g><g xmlns="http://www.w3.org/2000/svg" fill="#e6e6e6"><g xmlns="http://www.w3.org/2000/svg" fill="#e6e6e6"><path xmlns="http://www.w3.org/2000/svg" d=" M 143.69797 -172.88217 h 126.63501 v 82.96881 h -126.63501 Z  "/></g><g xmlns="http://www.w3.org/2000/svg" transform="translate(147.03012,-169.55002)"><g xmlns="http://www.w3.org/2000/svg" fill="#000"><text xmlns="http://www.w3.org/2000/svg" font-size="10" text-anchor="middle" transform="scale(1,-1) translate(59.98535,0)" style="stroke:none"><tspan xmlns="http://www.w3.org/2000/svg" font-size="10" font-family="ecrm"> </tspan></text></g></g></g><g xmlns="http://www.w3.org/2000/svg" fill="#e6e6e6"><g xmlns="http://www.w3.org/2000/svg" fill="#e6e6e6"><path xmlns="http://www.w3.org/2000/svg" d=" M 143.69797 -205.00177 h 126.63501 v 31.7196 h -126.63501 Z  "/></g><g xmlns="http://www.w3.org/2000/svg" transform="translate(147.03012,-201.66962)"><g xmlns="http://www.w3.org/2000/svg" fill="#000"><text xmlns="http://www.w3.org/2000/svg" font-size="10" text-anchor="middle" transform="scale(1,-1) translate(59.98535,0)" style="stroke:none"><tspan xmlns="http://www.w3.org/2000/svg" font-size="10" font-family="ecrm">...</tspan></text></g></g></g><g xmlns="http://www.w3.org/2000/svg" transform="translate(143.49797,-99.113)"><g xmlns="http://www.w3.org/2000/svg" fill="#000"><text xmlns="http://www.w3.org/2000/svg" font-size="10" text-anchor="middle" transform="scale(1,-1) translate(63.5175,0)" style="stroke:none"><NIL/></text></g></g><g xmlns="http://www.w3.org/2000/svg" transform="translate(193.89368,16.53944)"><g xmlns="http://www.w3.org/2000/svg" fill="#000"><text xmlns="http://www.w3.org/2000/svg" font-size="10" text-anchor="middle" transform="scale(1,-1) translate(13.1218,0)" style="stroke:none"><tspan xmlns="http://www.w3.org/2000/svg" font-size="10" font-family="ectt">Stack</tspan></text></g></g><g xmlns="http://www.w3.org/2000/svg" stroke-width="1.2"><g xmlns="http://www.w3.org/2000/svg" stroke-dashoffset="0.0" stroke-dasharray="1.2,2.0"><g xmlns="http://www.w3.org/2000/svg" stroke="#d81e05"><path xmlns="http://www.w3.org/2000/svg" fill="none" d=" M 83.51262 10.19756 L 83.51262 6.97575 L 142.29799 6.97575  "/><g xmlns="http://www.w3.org/2000/svg" fill="#d81e05"><g xmlns="http://www.w3.org/2000/svg" transform="translate(142.89798,6.97575)"><g xmlns="http://www.w3.org/2000/svg" stroke-dashoffset="0.0" stroke-dasharray="none"><g xmlns="http://www.w3.org/2000/svg" stroke-linecap="round"><g xmlns="http://www.w3.org/2000/svg" stroke-linejoin="round"><path xmlns="http://www.w3.org/2000/svg" fill="none" d=" M -3.04 3.84514 C -2.4846 1.53802 -1.24696 0.4486 0.0 0.0 C -1.24696 -0.4486 -2.4846 -1.53802 -3.04 -3.84514  "/></g></g></g></g></g><g xmlns="http://www.w3.org/2000/svg" transform="translate(103.02174,10.9079)"><g xmlns="http://www.w3.org/2000/svg" fill="#d81e05"><text xmlns="http://www.w3.org/2000/svg" font-size="10" text-anchor="middle" transform="scale(1,-1) translate(10.48355,0)" style="stroke:none"><tspan xmlns="http://www.w3.org/2000/svg" font-size="10" font-family="ecrm">Lock</tspan></text></g></g></g></g></g><g xmlns="http://www.w3.org/2000/svg" transform="translate(117.03745,-190.23828)"><g xmlns="http://www.w3.org/2000/svg" fill="#000"><text xmlns="http://www.w3.org/2000/svg" font-size="10" text-anchor="middle" transform="scale(1,-1) translate(0.0,0)" style="stroke:none"><NIL/></text></g></g><g xmlns="http://www.w3.org/2000/svg" stroke-width="1.2"><g xmlns="http://www.w3.org/2000/svg" stroke-dashoffset="0.0" stroke-dasharray="1.2,2.0"><g xmlns="http://www.w3.org/2000/svg" stroke="#d81e05"><path xmlns="http://www.w3.org/2000/svg" fill="none" d=" M 83.51262 -190.23828 L 83.51262 -190.23828 L 117.03745 -190.23828  "/><g xmlns="http://www.w3.org/2000/svg" transform="translate(93.38219,-201.05763)"><g xmlns="http://www.w3.org/2000/svg" fill="#d81e05"><text xmlns="http://www.w3.org/2000/svg" font-size="10" text-anchor="middle" transform="scale(1,-1) translate(15.27405,0)" style="stroke:none"><tspan xmlns="http://www.w3.org/2000/svg" font-size="10" font-family="ecrm">Unlock</tspan></text></g></g></g></g></g><g xmlns="http://www.w3.org/2000/svg" stroke-width="1.2"><g xmlns="http://www.w3.org/2000/svg" stroke-dashoffset="0.0" stroke-dasharray="1.2,2.0"><g xmlns="http://www.w3.org/2000/svg" stroke="#d81e05"><path xmlns="http://www.w3.org/2000/svg" fill="none" d=" M 117.03745 -190.23828 L 117.03745 -6.97575 L 142.29799 -6.97575  "/><g xmlns="http://www.w3.org/2000/svg" fill="#d81e05"><g xmlns="http://www.w3.org/2000/svg" transform="translate(142.89798,-6.97575)"><g xmlns="http://www.w3.org/2000/svg" stroke-dashoffset="0.0" stroke-dasharray="none"><g xmlns="http://www.w3.org/2000/svg" stroke-linecap="round"><g xmlns="http://www.w3.org/2000/svg" stroke-linejoin="round"><path xmlns="http://www.w3.org/2000/svg" fill="none" d=" M -3.04 3.84514 C -2.4846 1.53802 -1.24696 0.4486 0.0 0.0 C -1.24696 -0.4486 -2.4846 -1.53802 -3.04 -3.84514  "/></g></g></g></g></g></g></g></g></g></g></g></svg>
